<svg width="248" height="176" viewBox="0 0 248 176" fill="none" xmlns="http://www.w3.org/2000/svg">
<mask id="path-1-inside-1_470_61" fill="white">
<path d="M118 0C152.067 0 181.611 19.3582 196.235 47.6739C197.097 49.3419 198.643 50.5528 200.46 51.0233C227.805 58.102 248 82.9422 248 112.5C248 147.57 219.57 176 184.5 176C183.671 176 182.846 175.983 182.025 175.951C182.012 175.951 182 175.962 182 175.976C182 175.989 181.989 176 181.976 176H57.1729C57.0774 176 57 175.923 57 175.827C57 175.738 56.9322 175.664 56.844 175.655C24.9022 172.328 0 145.322 0 112.5C0 87.9712 13.9079 66.6911 34.2679 56.1144C35.6057 55.4194 36.6737 54.2915 37.2754 52.9093C50.8298 21.7711 81.8722 0 118 0Z"/>
</mask>
<path d="M34.2679 56.1144L43.4878 73.8624L34.2679 56.1144ZM37.2754 52.9093L18.9375 44.9268L37.2754 52.9093ZM56.844 175.655L54.7719 195.547L56.844 175.655ZM182.025 175.951L181.259 195.936L182.025 175.951ZM196.235 47.6739L214.005 38.4961L196.235 47.6739ZM200.46 51.0233L205.472 31.6615L200.46 51.0233ZM118 0V20C144.295 20 167.138 34.921 178.465 56.8518L196.235 47.6739L214.005 38.4961C196.083 3.79544 159.838 -20 118 -20V0ZM200.46 51.0233L195.448 70.3851C214.185 75.2356 228 92.2796 228 112.5H248H268C268 73.6048 241.424 40.9685 205.472 31.6615L200.46 51.0233ZM248 112.5H228C228 136.524 208.524 156 184.5 156V176V196C230.616 196 268 158.616 268 112.5H248ZM184.5 176V156C183.95 156 183.382 155.988 182.792 155.966L182.025 175.951L181.259 195.936C182.311 195.977 183.393 196 184.5 196V176ZM181.976 176V156H57.1729V176V196H181.976V176ZM56.844 175.655L58.916 155.762C37.0558 153.485 20 134.972 20 112.5H0H-20C-20 155.673 12.7486 191.17 54.7719 195.547L56.844 175.655ZM0 112.5H20C20 95.7254 29.4901 81.1341 43.4878 73.8624L34.2679 56.1144L25.048 38.3663C-1.67425 52.2482 -20 80.217 -20 112.5H0ZM37.2754 52.9093L55.6133 60.8918C66.1054 36.7886 90.1144 20 118 20V0V-20C73.63 -20 35.5543 6.75358 18.9375 44.9268L37.2754 52.9093ZM34.2679 56.1144L43.4878 73.8624C48.8019 71.1018 53.1404 66.5728 55.6133 60.8918L37.2754 52.9093L18.9375 44.9268C20.2071 42.0102 22.4094 39.737 25.048 38.3663L34.2679 56.1144ZM57 175.827H77C77 165.37 69.0682 156.82 58.916 155.762L56.844 175.655L54.7719 195.547C44.7962 194.508 37 186.106 37 175.827H57ZM182 175.976H162C162 164.943 170.943 156 181.976 156V176V196C193.035 196 202 187.035 202 175.976H182ZM182.025 175.951L182.792 155.966C171.442 155.531 162 164.613 162 175.976H182H202C202 187.31 192.581 196.371 181.259 195.936L182.025 175.951ZM57.1729 176V156C68.1226 156 77 164.876 77 175.827H57H37C37 186.969 46.0322 196 57.1729 196V176ZM196.235 47.6739L178.465 56.8518C182.003 63.7012 188.263 68.5251 195.448 70.3851L200.46 51.0233L205.472 31.6615C209.022 32.5806 212.19 34.9826 214.005 38.4961L196.235 47.6739Z" fill="white" mask="url(#path-1-inside-1_470_61)"/>
<path d="M130.486 19L103.37 64.4017C101.973 66.7403 102.327 69.7262 104.232 71.6736L136.886 105.061C138.735 106.952 139.129 109.83 137.855 112.147L111 161" stroke="white" stroke-width="20" stroke-linecap="round"/>
</svg>
