<svg width="129" height="195" viewBox="0 0 129 195" fill="none" xmlns="http://www.w3.org/2000/svg">
<path d="M64.397 0C28.8885 0 0 28.8885 0 64.397C0 78.9463 4.76588 92.6853 13.7831 104.125C15.511 106.318 17.372 108.477 19.1708 110.566C24.5429 116.799 29.6158 122.688 31.4215 129.31C31.4604 129.453 31.8002 130.844 31.7501 135.577L31.7414 136.261C31.687 140.105 31.6143 145.366 35.505 149.312C38.1695 152.015 41.9037 153.329 46.9238 153.329H81.7508C87.1714 153.329 91.0681 152.002 93.6642 149.274C97.1762 145.584 96.941 140.817 96.7844 137.662C96.7568 137.105 96.7273 136.542 96.7204 135.981C96.6642 131.242 97.0188 129.906 97.0335 129.85C98.8677 123.228 104.811 116.245 110.055 110.085C111.804 108.029 113.457 106.088 114.996 104.136C124.017 92.6948 128.784 78.9532 128.784 64.3978C128.785 28.8893 99.9011 0 64.397 0ZM104.811 96.103C103.421 97.8637 101.845 99.7161 100.177 101.677C94.0629 108.86 87.1324 117.002 84.5337 126.386C84.1627 127.722 83.6793 130.186 83.7511 136.134C83.7597 136.856 83.7935 137.583 83.8298 138.302C83.8575 138.871 83.8947 139.619 83.8912 140.213C83.4346 140.287 82.7453 140.356 81.7508 140.356H46.9238C45.8203 140.356 45.1752 140.24 44.844 140.151C44.6727 139.306 44.6969 137.551 44.7125 136.444L44.7229 135.714C44.7851 129.731 44.3052 127.249 43.9385 125.9C41.3614 116.443 34.7933 108.822 28.9992 102.098C27.2125 100.024 25.5236 98.0643 23.9721 96.0943C16.777 86.9647 12.9737 76.0034 12.9737 64.3961C12.9737 36.0403 36.0429 12.9711 64.3987 12.9711C92.7493 12.9711 115.815 36.0403 115.815 64.3961C115.813 76.0095 112.009 86.9742 104.811 96.103Z" fill="white"/>
<path d="M80.2199 159.554L48.0592 159.554C41.1176 159.554 35.4697 165.301 35.4697 172.365L35.4697 182.188C35.4697 189.252 41.1176 195 48.0592 195L80.2199 195C87.1615 195 92.8095 189.252 92.8095 182.188L92.8095 172.365C92.8095 165.301 87.1615 159.554 80.2199 159.554ZM79.7858 181.747L48.4934 181.747L48.4934 172.808L79.7858 172.808L79.7858 181.747Z" fill="white"/>
</svg>
