<svg width="90" height="105" viewBox="0 0 90 105" fill="none" xmlns="http://www.w3.org/2000/svg">
<path d="M-0.000116825 40.32C-0.000116825 38.272 0.597216 36.5653 1.79188 35.2C3.07188 33.8346 4.77855 33.152 6.91188 33.152C9.13055 33.152 10.8372 33.8346 12.0319 35.2C13.3119 36.5653 13.9519 38.272 13.9519 40.32C13.9519 42.368 13.3119 44.0746 12.0319 45.44C10.8372 46.72 9.13055 47.36 6.91188 47.36C4.77855 47.36 3.07188 46.72 1.79188 45.44C0.597216 44.0746 -0.000116825 42.368 -0.000116825 40.32ZM-0.000116825 85.12C-0.000116825 83.072 0.597216 81.3653 1.79188 80C2.98655 78.6346 4.69322 77.952 6.91188 77.952C9.13055 77.952 10.8372 78.6346 12.0319 80C13.3119 81.3653 13.9519 83.072 13.9519 85.12C13.9519 87.0826 13.3119 88.7466 12.0319 90.112C10.8372 91.4773 9.13055 92.16 6.91188 92.16C4.69322 92.16 2.98655 91.4773 1.79188 90.112C0.597216 88.7466 -0.000116825 87.0826 -0.000116825 85.12ZM30.5219 103.936C30.0099 104.021 29.4979 104.064 28.9859 104.064C28.4739 104.149 27.8765 104.192 27.1939 104.192C25.5725 104.192 24.3352 103.765 23.4819 102.912C22.6285 102.144 22.2019 101.035 22.2019 99.584C22.2019 98.6453 22.3725 97.536 22.7139 96.256C23.0552 94.976 23.3112 93.952 23.4819 93.184L47.0339 0.255966C47.6312 0.170634 48.1859 0.127968 48.6979 0.127968C49.2099 0.0426356 49.7646 -3.05176e-05 50.3619 -3.05176e-05C51.8126 -3.05176e-05 53.0072 0.38397 53.9459 1.15197C54.8846 1.83463 55.3539 2.98663 55.3539 4.60797C55.3539 5.54664 55.2259 6.6133 54.9699 7.80797C54.7139 8.9173 54.4579 9.98397 54.2019 11.008L30.5219 103.936ZM65.0219 103.936C64.5099 104.021 63.9979 104.064 63.4859 104.064C62.9739 104.149 62.3765 104.192 61.6939 104.192C60.0725 104.192 58.8352 103.765 57.9819 102.912C57.1285 102.144 56.7019 101.035 56.7019 99.584C56.7019 98.6453 56.8725 97.536 57.2139 96.256C57.5552 94.976 57.8112 93.952 57.9819 93.184L81.5339 0.255966C82.1312 0.170634 82.6859 0.127968 83.1979 0.127968C83.7099 0.0426356 84.2646 -3.05176e-05 84.8619 -3.05176e-05C86.3126 -3.05176e-05 87.5072 0.38397 88.4459 1.15197C89.3846 1.83463 89.8539 2.98663 89.8539 4.60797C89.8539 5.54664 89.7259 6.6133 89.4699 7.80797C89.2139 8.9173 88.9579 9.98397 88.7019 11.008L65.0219 103.936Z" fill="white"/>
</svg>
