<svg width="250" height="250" viewBox="0 0 250 250" fill="none" xmlns="http://www.w3.org/2000/svg">
<g clip-path="url(#clip0_470_44)">
<rect width="250" height="250" rx="30" fill="url(#paint0_linear_470_44)"/>
<path d="M250.214 74.6041C246.837 67.1093 241.248 60.8547 234.218 56.7033C227.188 52.5518 219.062 50.7082 210.963 51.4266L182.175 53.9452C176.34 38.438 165.46 25.3964 151.331 16.9727C137.201 8.54897 120.667 5.24662 104.456 7.61061C88.2454 9.97461 73.327 17.8637 62.1632 29.9758C50.9993 42.088 44.2572 57.6994 43.0493 74.2337M197.173 119.162C204.882 118.487 212.649 119.357 220.032 121.72C227.415 124.083 234.268 127.894 240.201 132.935C246.135 137.976 251.032 144.148 254.612 151.099C258.193 158.05 260.387 165.644 261.07 173.448C261.752 181.251 260.91 189.111 258.591 196.578C256.272 204.045 252.521 210.974 247.554 216.969C242.586 222.963 236.498 227.906 229.638 231.516C222.777 235.125 215.279 237.33 207.571 238.004L96.776 247.697C79.8402 249.194 62.8167 245.893 47.6089 238.163C32.401 230.433 19.6083 218.578 10.6609 203.924C1.71344 189.27 -3.03594 172.395 -3.05631 155.185C-3.07668 137.976 1.63277 121.109 10.5455 106.472C19.4582 91.8354 32.223 80.0048 47.4125 72.3031C62.6021 64.6014 79.6178 61.3322 96.5572 62.8611C113.497 64.39 129.692 70.6566 143.333 80.9604C156.974 91.2642 167.522 105.199 173.799 121.207L197.173 119.162Z" stroke="url(#paint1_linear_470_44)" stroke-width="27" stroke-linecap="round" stroke-linejoin="round"/>
</g>
<defs>
<linearGradient id="paint0_linear_470_44" x1="5.30257e-07" y1="106.482" x2="250" y2="143.518" gradientUnits="userSpaceOnUse">
<stop stop-color="#2D1229"/>
<stop offset="1" stop-color="#211520"/>
</linearGradient>
<linearGradient id="paint1_linear_470_44" x1="-3.1327" y1="16.9052" x2="255.252" y2="232.431" gradientUnits="userSpaceOnUse">
<stop stop-color="#76A4FF"/>
<stop offset="1" stop-color="#8264FE"/>
</linearGradient>
<clipPath id="clip0_470_44">
<rect width="250" height="250" rx="30" fill="white"/>
</clipPath>
</defs>
</svg>
