<svg width="1555" height="215" viewBox="0 0 1555 215" fill="none" xmlns="http://www.w3.org/2000/svg">
<path d="M144.8 150.6L149.2 155C154.4 160.2 154.4 168.6 149.2 174C146.6 176.6 143.2 177.8 139.8 177.8C136.4 177.8 132.8 176.6 130.2 174L124.8 168.6C113 176 99.2 180 84.8 180C64.6 180 45.6 172 31.2 157.6C16.8 143.4 9 124.2 9 104C9 83.6 16.8 64.6 31.2 50.2C33 48.4 35 46.6 37 45C39.6 42.8 42.2 41 45 39.2C46 38.6 46.8 38.2 47.8 37.6C50 36.4 52.4 35.2 55 34.2C56 33.6 56.8 33.4 57.8 33C59.2 32.4 60.6 32 62 31.4C64.2 30.8 66.6 30.2 68.8 29.6C69.8 29.4 70.6 29.4 71.6 29.2C76 28.4 80.4 28 84.8 28C89.8 28 94.6 28.4 99.4 29.4C105.8 30.6 112 32.6 118 35.6C125.4 39.2 132.4 44 138.6 50.2C153 64.6 160.8 83.6 160.8 104C160.8 121 155.2 137.2 144.8 150.6ZM125.6 131.4C138.6 112.2 136.6 86 119.6 69.2C110 59.6 97.4 54.8 84.8 54.8C72.4 54.8 59.8 59.6 50.2 69.2C40.8 78.4 35.8 90.8 35.8 104C35.8 117 40.8 129.4 50.2 138.6C65 153.6 87 156.8 105 148.8L84.2 127.8C79 122.6 79 114 84.2 108.8C89.4 103.6 98 103.6 103.2 108.8L125.6 131.4ZM295.889 32C303.289 32 309.289 38 309.289 45.4V120.8C309.289 151.8 280.689 177.8 246.889 177.8C213.089 177.8 184.689 151.8 184.689 120.8V45.4C184.689 38 190.689 32 198.089 32C205.489 32 211.489 38 211.489 45.4V120.8C211.489 137 227.889 151 246.889 151C264.889 151 282.489 137.4 282.489 120.8V45.4C282.489 38 288.489 32 295.889 32Z" fill="#C178FF"/>
<path d="M465.973 155.6C469.373 162.2 466.773 170.2 460.173 173.6C453.573 177 445.373 174.2 442.173 167.6L432.773 149.2H356.773L347.373 167.6C345.173 172.4 340.373 175 335.573 175C325.573 175 318.973 164.4 323.573 155.6L382.773 38.8C382.973 38.6 382.973 38.4 383.173 38.2C383.173 38 383.373 38 383.373 37.8C383.973 37 384.573 36.2 385.373 35.4C385.373 35.2 385.573 35.2 385.773 35C385.973 34.8 386.173 34.6 386.373 34.4C386.573 34.4 386.773 34.2 386.973 34C387.173 33.8 387.373 33.8 387.573 33.6C388.373 33 389.373 32.6 390.373 32.2C390.573 32.2 390.573 32.2 390.773 32.2C390.973 32 391.373 32 391.573 31.8C391.973 31.8 392.173 31.8 392.373 31.8C392.573 31.6 392.773 31.6 392.973 31.6C393.573 31.6 394.173 31.6 394.573 31.6C394.773 31.4 394.773 31.4 394.773 31.4L394.973 31.6C395.373 31.6 395.973 31.6 396.373 31.6C396.373 31.6 396.573 31.6 396.773 31.6C397.173 31.8 397.573 31.8 398.173 32H398.373C398.773 32.2 399.373 32.2 399.773 32.4C399.973 32.6 400.173 32.6 400.173 32.6C400.373 32.8 400.573 32.8 400.773 33C400.973 33 401.173 33 401.173 33.2C401.373 33.2 401.573 33.4 401.573 33.4C401.973 33.6 402.373 33.8 402.773 34.2C404.573 35.6 405.973 37.2 406.973 39.2C406.773 39.2 406.773 39 406.773 39L465.973 155.6ZM370.573 122.4H418.973L394.773 74.6L370.573 122.4ZM570.07 148.2C577.47 148.2 583.47 154.2 583.47 161.6C583.47 169 577.47 175 570.07 175H501.07C498.27 175 495.67 174.2 493.47 172.8C490.27 170.6 488.07 167.2 487.67 163C487.67 162.6 487.67 162.2 487.67 161.6V45C487.67 37.6 493.67 31.6 501.07 31.6C508.47 31.6 514.47 37.6 514.47 45V148.2H570.07Z" fill="#76A4FF"/>
<path d="M945.4 134.4C957.4 134.4 963.4 149.4 954.6 157.6C940.8 170.6 922.8 177.6 904 177.6C863.2 177.6 830 144.4 830 103.6C830 62.8 863.2 29.6 904 29.6C923.2 29.6 941.4 37 955.2 50.2C960.6 55.4 960.8 64 955.6 69.2C950.4 74.6 942 74.8 936.6 69.6C927.8 61.2 916.2 56.4 904 56.4C877.8 56.4 856.8 77.6 856.8 103.6C856.8 129.6 877.8 150.8 904 150.8C916 150.8 927.4 146.4 936.2 138C938.8 135.6 942 134.4 945.4 134.4ZM1066.27 148.2C1073.67 148.2 1079.67 154.2 1079.67 161.6C1079.67 169 1073.67 175 1066.27 175H997.266C994.466 175 991.866 174.2 989.666 172.8C986.466 170.6 984.266 167.2 983.866 163C983.866 162.6 983.866 162.2 983.866 161.6V45C983.866 37.6 989.866 31.6 997.266 31.6C1004.67 31.6 1010.67 37.6 1010.67 45V148.2H1066.27ZM1159.13 27.8C1200.93 27.8 1234.93 61.8 1234.93 103.8C1234.93 145.6 1200.93 179.8 1159.13 179.8H1158.93C1117.13 179.8 1083.13 145.6 1083.13 103.8C1083.13 61.8 1117.13 27.8 1158.93 27.8C1159.13 27.8 1159.13 27.8 1159.13 27.8ZM1158.93 153C1186.13 153 1208.13 130.8 1208.13 103.8C1208.13 76.6 1186.13 54.6 1158.93 54.6C1131.93 54.6 1109.93 76.6 1109.93 103.8C1109.93 130.8 1131.93 153 1158.93 153ZM1368.65 32C1376.05 32 1382.05 38 1382.05 45.4V120.8C1382.05 151.8 1353.45 177.8 1319.65 177.8C1285.85 177.8 1257.45 151.8 1257.45 120.8V45.4C1257.45 38 1263.45 32 1270.85 32C1278.25 32 1284.25 38 1284.25 45.4V120.8C1284.25 137 1300.65 151 1319.65 151C1337.65 151 1355.25 137.4 1355.25 120.8V45.4C1355.25 38 1361.25 32 1368.65 32ZM1477.81 31.6C1516.01 32 1544.61 62.8 1544.61 103.4C1544.61 144 1516.01 174.6 1477.81 175C1477.61 175 1477.41 175 1477.41 175H1424.61C1417.21 175 1411.21 169 1411.21 161.6V45C1411.21 37.6 1417.21 31.6 1424.61 31.6H1476.81C1477.21 31.6 1477.41 31.6 1477.81 31.6ZM1517.81 103.4C1517.81 77.2 1500.61 58.4 1476.81 58.4H1438.01V148.2H1476.81C1500.61 148.2 1517.81 129.4 1517.81 103.4Z" fill="#8365FF"/>
<path d="M787.572 82.3459C785.813 77.3374 782.552 73.0019 778.241 69.9374C773.929 66.8729 768.779 65.2306 763.5 65.2369H744.741C741.845 54.9388 735.547 45.9422 726.886 39.7317C718.225 33.5212 707.72 30.468 697.102 31.076C686.485 31.684 676.391 35.9169 668.487 43.0761C660.582 50.2353 655.338 59.8929 653.622 70.4551M750.75 108.009C755.773 108.009 760.747 109.005 765.388 110.94C770.029 112.874 774.245 115.71 777.797 119.284C781.349 122.859 784.166 127.103 786.088 131.773C788.011 136.444 789 141.449 789 146.505C789 151.56 788.011 156.566 786.088 161.236C784.166 165.907 781.349 170.15 777.797 173.725C774.245 177.3 770.029 180.135 765.388 182.07C760.747 184.004 755.773 185 750.75 185H678.552C667.515 185.01 656.693 181.93 647.296 176.105C637.898 170.279 630.296 161.938 625.339 152.014C620.382 142.089 618.265 130.973 619.226 119.907C620.186 108.841 624.186 98.2627 630.778 89.3537C637.37 80.4447 646.294 73.5565 656.553 69.4593C666.811 65.3622 678 64.2175 688.868 66.1532C699.736 68.089 709.855 73.0289 718.094 80.4206C726.332 87.8124 732.365 97.3646 735.519 108.009H750.75Z" stroke="url(#paint0_linear_470_8)" stroke-width="20" stroke-linecap="round" stroke-linejoin="round"/>
<defs>
<linearGradient id="paint0_linear_470_8" x1="626.5" y1="108" x2="782.5" y2="108" gradientUnits="userSpaceOnUse">
<stop stop-color="#76A4FF"/>
<stop offset="1" stop-color="#8365FF"/>
</linearGradient>
</defs>
</svg>
